<svg width="40" height="40" viewBox="0 0 40 40" fill="none" xmlns="http://www.w3.org/2000/svg">
<g clip-path="url(#clip0_1_3002)">
<path d="M30.1976 0.219696H9.31481C4.22661 0.219696 0.101807 4.3445 0.101807 9.4327V30.3155C0.101807 35.4037 4.22661 39.5285 9.31481 39.5285H30.1976C35.2858 39.5285 39.4106 35.4037 39.4106 30.3155V9.4327C39.4106 4.3445 35.2858 0.219696 30.1976 0.219696Z" fill="#330000"/>
<path d="M19.1012 23.6107H13.0083L11.7635 27.4597C11.7308 27.6071 11.5998 27.7054 11.4524 27.6889H8.37311C8.19299 27.6889 8.14386 27.5907 8.19299 27.3941L13.467 12.2111C13.5161 12.0474 13.5653 11.8671 13.6307 11.6706C13.6962 11.3266 13.7289 10.9664 13.7289 10.606C13.7127 10.5242 13.7781 10.4422 13.8601 10.4259H18.102C18.2332 10.4259 18.2986 10.4751 18.315 10.5569L24.2932 27.427C24.3423 27.6071 24.2932 27.6889 24.1295 27.6889H20.7063C20.5917 27.7054 20.477 27.6235 20.4443 27.5088L19.1012 23.6107ZM13.9583 20.2858H18.1185C18.0202 19.9419 17.8892 19.5324 17.7418 19.1066C17.5944 18.6643 17.447 18.1894 17.2996 17.6981C17.1357 17.1903 16.9883 16.6989 16.8245 16.1911C16.6608 15.6835 16.5134 15.2084 16.3823 14.7335C16.2513 14.275 16.1366 13.849 16.0221 13.4559H15.9892C15.8418 14.1603 15.6617 14.8646 15.4324 15.5688C15.1867 16.355 14.9411 17.1738 14.6789 17.9929C14.4675 18.7659 14.2271 19.5308 13.9583 20.2858ZM27.9457 13.2921C27.4052 13.3085 26.8811 13.0955 26.488 12.7189C26.1114 12.3094 25.9148 11.7689 25.9311 11.2121C25.9148 10.6552 26.1276 10.1311 26.5207 9.75429C26.9138 9.37748 27.438 9.18109 27.9785 9.18109C28.6173 9.18109 29.1087 9.37764 29.4689 9.75429C29.8319 10.1514 30.0258 10.6743 30.0094 11.2121C30.0258 11.7689 29.8293 12.3094 29.4362 12.7189C29.0595 13.112 28.5026 13.3249 27.9457 13.2921ZM26.1114 27.5088V14.8973C26.1114 14.7335 26.1768 14.6679 26.3242 14.6679H29.5672C29.7146 14.6679 29.7801 14.7499 29.7801 14.8973V27.5088C29.7801 27.6889 29.7146 27.7709 29.5672 27.7709H26.357C26.1932 27.7709 26.1114 27.6727 26.1114 27.5088Z" fill="#FF9A00"/>
</g>
<defs>
<clipPath id="clip0_1_3002">
<rect width="39.3088" height="39.3088" fill="white" transform="translate(0.103271 0.219849)"/>
</clipPath>
</defs>
</svg>
