<svg width="16" height="13" viewBox="0 0 16 13" fill="none" xmlns="http://www.w3.org/2000/svg">
<path d="M1.1089 4.13241L3.49822 1.7431V12.3974C3.49822 12.5172 3.54582 12.6322 3.63056 12.7169C3.71529 12.8016 3.83022 12.8492 3.95005 12.8492C4.06989 12.8492 4.18481 12.8016 4.26955 12.7169C4.35429 12.6322 4.40189 12.5172 4.40189 12.3974V1.73858L6.79572 4.13332C6.88056 4.21804 6.99559 4.26559 7.11549 4.2655C7.23539 4.26542 7.35035 4.21771 7.43507 4.13287C7.51979 4.04802 7.56734 3.933 7.56726 3.8131C7.56717 3.6932 7.51946 3.57824 7.43462 3.49352L4.2808 0.339696L4.27176 0.330659C4.2298 0.288564 4.17994 0.255162 4.12505 0.232367C4.07015 0.209572 4.0113 0.197831 3.95186 0.197819H3.95005C3.88405 0.197865 3.81886 0.212372 3.75906 0.240318C3.69927 0.268264 3.64632 0.308971 3.60395 0.359576L0.469102 3.49352C0.427151 3.53553 0.393886 3.58539 0.371205 3.64025C0.348524 3.69512 0.336872 3.75392 0.336914 3.81328C0.336956 3.87265 0.348691 3.93143 0.37145 3.98627C0.394208 4.0411 0.427544 4.09091 0.469554 4.13287C0.511563 4.17482 0.561425 4.20808 0.616291 4.23076C0.671157 4.25344 0.729953 4.2651 0.789322 4.26505C0.848691 4.26501 0.90747 4.25328 0.962304 4.23052C1.01714 4.20776 1.06695 4.17442 1.1089 4.13241ZM14.9288 8.91465L12.5395 11.304V0.649656C12.5395 0.529821 12.4919 0.414895 12.4071 0.330159C12.3224 0.245423 12.2075 0.197819 12.0876 0.197819C11.9678 0.197819 11.8529 0.245423 11.7681 0.330159C11.6834 0.414895 11.6358 0.529821 11.6358 0.649656V11.3085L9.24106 8.91375C9.19905 8.8718 9.14919 8.83853 9.09433 8.81585C9.03946 8.79317 8.98066 8.78152 8.92129 8.78156C8.80139 8.78165 8.68644 8.82936 8.60171 8.9142C8.51699 8.99905 8.46944 9.11407 8.46953 9.23397C8.46961 9.35387 8.51732 9.46883 8.60217 9.55355L11.756 12.7074L11.765 12.7164C11.8071 12.7586 11.8571 12.7921 11.9122 12.8149C11.9672 12.8377 12.0262 12.8494 12.0858 12.8492H12.0876C12.1536 12.8492 12.2188 12.8347 12.2786 12.8067C12.3384 12.7788 12.3914 12.7381 12.4337 12.6875L15.5677 9.55355C15.6108 9.51187 15.6453 9.46201 15.6689 9.40689C15.6926 9.35176 15.7051 9.29247 15.7056 9.23248C15.7061 9.17248 15.6947 9.11298 15.672 9.05746C15.6493 9.00193 15.6157 8.95148 15.5733 8.90905C15.5309 8.86663 15.4804 8.83308 15.4249 8.81036C15.3694 8.78764 15.3099 8.77621 15.2499 8.77673C15.1899 8.77725 15.1306 8.78972 15.0754 8.8134C15.0203 8.83708 14.9705 8.8715 14.9288 8.91465Z" fill="white"/>
</svg>
