<svg width="14" height="15" viewBox="0 0 14 15" fill="none" xmlns="http://www.w3.org/2000/svg">
<path d="M6.71105 1.93228C7.47391 1.17344 8.50332 0.743077 9.57928 0.733147C10.6552 0.723217 11.6924 1.13451 12.4691 1.87914C13.2459 2.62376 13.7006 3.64266 13.736 4.71808C13.7715 5.7935 13.385 6.84014 12.659 7.63434L12.5292 7.76965L6.48509 13.8124L6.46036 13.833C5.98979 14.2567 5.37875 14.4907 4.74554 14.4897C4.11234 14.4888 3.50201 14.2529 3.03271 13.8278C2.56342 13.4027 2.26854 12.8186 2.20517 12.1886C2.14179 11.5586 2.31443 10.9274 2.68967 10.4174C2.70678 10.3861 2.7263 10.3563 2.74805 10.3281L2.78514 10.2869L2.84489 10.2264L2.94173 10.1248L2.94379 10.1268L8.05106 5.00722C8.13819 4.91987 8.25378 4.8667 8.3768 4.85738C8.49982 4.84805 8.6221 4.88318 8.7214 4.95639L8.7791 5.00653C8.86644 5.09366 8.91961 5.20925 8.92894 5.33227C8.93826 5.45529 8.90313 5.57757 8.82992 5.67688L8.78047 5.73457L3.564 10.9634C3.32257 11.2596 3.20059 11.6354 3.22203 12.0169C3.24346 12.3985 3.40675 12.7582 3.67983 13.0256C3.95292 13.2929 4.31607 13.4485 4.69799 13.4618C5.0799 13.475 5.45299 13.3451 5.744 13.0974L11.8108 7.03268C12.3729 6.46091 12.691 5.69314 12.6978 4.89135C12.7047 4.08955 12.3999 3.31644 11.8476 2.73513C11.2953 2.15381 10.5388 1.80976 9.73775 1.77556C8.93665 1.74135 8.1536 2.01968 7.55379 2.5518L7.43841 2.66169L7.43016 2.67131L0.87987 9.22092C0.787955 9.31308 0.664555 9.36704 0.53448 9.37193C0.404406 9.37682 0.277303 9.33229 0.178725 9.24728C0.0801481 9.16228 0.0174065 9.04311 0.00311545 8.91373C-0.0111756 8.78435 0.0240435 8.65435 0.101692 8.54988L0.15183 8.49219L6.71105 1.93228Z" fill="#A1A1A1"/>
</svg>
