<svg width="12" height="13" viewBox="0 0 12 13" fill="none" xmlns="http://www.w3.org/2000/svg">
<path d="M9.85714 0.915405C10.4255 0.915405 10.9705 1.14117 11.3724 1.54303C11.7742 1.9449 12 2.48994 12 3.05826V10.7725C12 11.3409 11.7742 11.8859 11.3724 12.2878C10.9705 12.6896 10.4255 12.9154 9.85714 12.9154H2.14286C1.57454 12.9154 1.02949 12.6896 0.627628 12.2878C0.225765 11.8859 0 11.3409 0 10.7725V3.05826C0 2.48994 0.225765 1.9449 0.627628 1.54303C1.02949 1.14117 1.57454 0.915405 2.14286 0.915405H9.85714ZM11.1429 4.34398H0.857143V10.7725C0.857143 11.1135 0.992602 11.4406 1.23372 11.6817C1.47484 11.9228 1.80186 12.0583 2.14286 12.0583H9.85714C10.1981 12.0583 10.5252 11.9228 10.7663 11.6817C11.0074 11.4406 11.1429 11.1135 11.1429 10.7725V4.34398ZM9.85714 1.77255H2.14286C1.80186 1.77255 1.47484 1.90801 1.23372 2.14912C0.992602 2.39024 0.857143 2.71727 0.857143 3.05826V3.48683H11.1429V3.05826C11.1429 2.71727 11.0074 2.39024 10.7663 2.14912C10.5252 1.90801 10.1981 1.77255 9.85714 1.77255Z" fill="#0077F0"/>
</svg>
