<svg width="23" height="24" viewBox="0 0 23 24" fill="none" xmlns="http://www.w3.org/2000/svg">
<path d="M9.81984 0.821411C8.247 0.821286 6.70146 1.23244 5.33659 2.01407C3.97172 2.79571 2.83495 3.92065 2.0391 5.27728C1.24324 6.63391 0.815958 8.17507 0.799646 9.74783C0.783334 11.3206 1.17856 12.8703 1.94611 14.2431L0.841509 17.1323C0.749684 17.3724 0.726391 17.6334 0.77423 17.886C0.822068 18.1387 0.939155 18.373 1.11243 18.563C1.2857 18.753 1.50835 18.8911 1.75553 18.9619C2.00271 19.0327 2.26471 19.0334 2.51228 18.964L5.96346 17.9968C7.18594 18.5744 8.52264 18.8698 9.87469 18.8611C11.2267 18.8525 12.5595 18.54 13.7745 17.9467C14.9895 17.3535 16.0555 16.4947 16.8938 15.4338C17.7321 14.373 18.3212 13.1373 18.6175 11.8181C18.9138 10.4989 18.9098 9.12995 18.6057 7.81252C18.3016 6.49509 17.7051 5.26289 16.8606 4.20705C16.016 3.15121 14.9449 2.29875 13.7264 1.71271C12.5079 1.12668 11.1719 0.822068 9.81984 0.821411ZM2.18895 9.84137C2.18957 8.17813 2.73349 6.56062 3.73795 5.23494C4.74241 3.90926 6.15242 2.94798 7.75346 2.49737C9.35449 2.04676 11.0589 2.13148 12.6074 2.73864C14.1558 3.3458 15.4636 4.44216 16.3316 5.86092C17.1996 7.27967 17.5805 8.94315 17.4162 10.5983C17.2518 12.2534 16.5514 13.8095 15.4213 15.0299C14.2912 16.2502 12.7934 17.0681 11.1558 17.3589C9.51821 17.6497 7.83041 17.3977 6.34924 16.641L6.10778 16.5161L2.139 17.6277L3.48366 14.1085L3.30604 13.8171C2.57292 12.6207 2.18715 11.2445 2.18895 9.84137ZM13.9316 23.0244C12.6332 23.0254 11.35 22.7456 10.1699 22.2043C8.98977 21.663 7.94065 20.8729 7.09442 19.8882C7.8915 20.1036 8.71138 20.2233 9.53675 20.2449C10.8228 21.1504 12.3573 21.6366 13.9302 21.6367C15.1819 21.6367 16.3614 21.3356 17.4022 20.8041L17.6436 20.6792L21.6124 21.7907L20.2677 18.2716L20.4454 17.9802C21.1531 16.8228 21.5624 15.4629 21.5624 14.0044C21.5649 12.4634 21.0984 10.9582 20.2247 9.68873C20.2134 8.86318 20.104 8.04191 19.8986 7.24224C20.859 8.08744 21.628 9.12785 22.1542 10.294C22.6805 11.4601 22.9518 12.7251 22.9501 14.0044C22.9501 15.6017 22.5338 17.1031 21.8053 18.4062L22.9085 21.2953C23.0003 21.5355 23.0236 21.7965 22.9758 22.0491C22.9279 22.3017 22.8108 22.5361 22.6376 22.7261C22.4643 22.916 22.2417 23.0541 21.9945 23.1249C21.7473 23.1957 21.4853 23.1965 21.2377 23.1271L17.7865 22.1599C16.6167 22.7149 15.3081 23.0244 13.9288 23.0244" fill="#616161"/>
</svg>
