<svg width="14" height="12" viewBox="0 0 14 12" fill="none" xmlns="http://www.w3.org/2000/svg">
<path d="M5.52 9.71216L8.69408 0.770053C8.8406 0.358099 9.3971 0.333789 9.59092 0.697123L9.62312 0.769396L13.2368 10.9533C13.2789 11.0711 13.2748 11.2005 13.225 11.3153C13.1753 11.4301 13.0838 11.5217 12.9691 11.5715C12.8543 11.6213 12.7249 11.6256 12.6071 11.5835C12.4893 11.5414 12.3919 11.4561 12.3347 11.3449L12.3084 11.2831L11.2578 8.32584H7.05678L6.01868 11.2509C6.00131 11.3133 5.97183 11.3716 5.93193 11.4225C5.89202 11.4735 5.84246 11.5161 5.78609 11.5479L5.72499 11.5768C5.61422 11.6205 5.49138 11.6226 5.37917 11.5828C5.26696 11.5429 5.17298 11.4638 5.11461 11.36L5.0857 11.2995L4.43196 9.63989H1.72962L1.07588 11.2956C1.03224 11.4065 0.949885 11.4979 0.844058 11.5527C0.738231 11.6076 0.616112 11.6222 0.500325 11.5939L0.435937 11.5735C0.325258 11.5296 0.234207 11.4472 0.179615 11.3414C0.125022 11.2356 0.110581 11.1136 0.138962 10.998L0.158672 10.9336L2.62514 4.69512C2.65903 4.60911 2.71644 4.53437 2.79079 4.47944C2.86514 4.42451 2.95345 4.3916 3.04561 4.38447C3.13778 4.37734 3.2301 4.39629 3.31201 4.43914C3.39392 4.48199 3.46213 4.54701 3.50884 4.62679L3.54169 4.69578L5.52 9.71216ZM3.08243 6.2181L2.11989 8.65435H4.04366L3.08243 6.2181ZM9.1586 2.40736L7.40697 7.3403H10.9089L9.1586 2.40736Z" fill="#4E4E4E"/>
</svg>
