<svg width="40" height="40" viewBox="0 0 40 40" fill="none" xmlns="http://www.w3.org/2000/svg">
<path d="M30.1999 0.645874H9.31713C4.22893 0.645874 0.104126 4.77068 0.104126 9.85888V30.7417C0.104126 35.8299 4.22893 39.9547 9.31713 39.9547H30.1999C35.2882 39.9547 39.413 35.8299 39.413 30.7417V9.85888C39.413 4.77068 35.2882 0.645874 30.1999 0.645874Z" fill="#F4F2ED"/>
<mask id="mask0_1_3015" style="mask-type:luminance" maskUnits="userSpaceOnUse" x="9" y="4" width="21" height="32">
<path d="M9.47095 4.9455H29.9484V35.6555H9.47095V4.9455Z" fill="white"/>
</mask>
<g mask="url(#mask0_1_3015)">
<path d="M14.591 35.6551C17.4163 35.6551 19.7093 33.3621 19.7093 30.5368V25.4184H14.591C11.7657 25.4184 9.47253 27.7115 9.47253 30.5368C9.47253 33.3621 11.7657 35.6551 14.591 35.6551Z" fill="#0ACF83"/>
<path d="M9.47253 20.3006C9.47253 17.4752 11.7657 15.1823 14.591 15.1823H19.7093V25.4189H14.591C11.7657 25.4189 9.47253 23.1259 9.47253 20.3006Z" fill="#A259FF"/>
<path d="M9.47241 10.0638C9.47241 7.23846 11.7655 4.9455 14.5909 4.9455H19.7091V15.1822H14.5909C11.7655 15.1822 9.47241 12.8891 9.47241 10.0638Z" fill="#F24E1E"/>
<path d="M19.71 4.9455H24.8282C27.6536 4.9455 29.9467 7.23846 29.9467 10.0638C29.9467 12.8891 27.6536 15.1822 24.8282 15.1822H19.71V4.9455Z" fill="#FF7262"/>
<path d="M29.9467 20.3006C29.9467 23.1259 27.6536 25.4189 24.8282 25.4189C22.0029 25.4189 19.71 23.1259 19.71 20.3006C19.71 17.4752 22.0029 15.1823 24.8282 15.1823C27.6536 15.1823 29.9467 17.4752 29.9467 20.3006Z" fill="#1ABCFE"/>
</g>
</svg>
