<svg width="13" height="10" viewBox="0 0 13 10" fill="none" xmlns="http://www.w3.org/2000/svg">
<path d="M4.05869 8.11363H8.56755C8.68023 8.11343 8.78889 8.15541 8.87216 8.23132C8.95542 8.30723 9.00725 8.41157 9.01743 8.52378C9.02761 8.63599 8.99541 8.74795 8.92716 8.8376C8.85892 8.92726 8.75959 8.98812 8.64871 9.00819L8.56755 9.01541H4.05869C3.94602 9.01561 3.83735 8.97363 3.75408 8.89772C3.67082 8.82181 3.619 8.71747 3.60882 8.60526C3.59864 8.49305 3.63084 8.38109 3.69908 8.29143C3.76732 8.20178 3.86666 8.14092 3.97753 8.12085L4.05869 8.11363ZM2.25514 4.50654H10.3711C10.4838 4.50633 10.5924 4.54832 10.6757 4.62423C10.759 4.70014 10.8108 4.80447 10.821 4.91669C10.8312 5.0289 10.799 5.14085 10.7307 5.23051C10.6625 5.32017 10.5631 5.38102 10.4523 5.4011L10.3711 5.40831H2.25514C2.14247 5.40852 2.0338 5.36653 1.95054 5.29062C1.86727 5.21471 1.81545 5.11038 1.80527 4.99817C1.79509 4.88595 1.82729 4.774 1.89553 4.68434C1.96378 4.59468 2.06311 4.53383 2.17398 4.51375L2.25514 4.50654ZM0.451596 0.899445H12.1746C12.2873 0.899238 12.396 0.941224 12.4793 1.01713C12.5625 1.09305 12.6143 1.19738 12.6245 1.30959C12.6347 1.4218 12.6025 1.53376 12.5343 1.62342C12.466 1.71307 12.3667 1.77393 12.2558 1.794L12.1746 1.80122H0.451596C0.338923 1.80143 0.230255 1.75944 0.146992 1.68353C0.0637285 1.60762 0.0119037 1.50328 0.00172316 1.39107C-0.00845738 1.27886 0.023744 1.1669 0.0919862 1.07725C0.160228 0.98759 0.259566 0.926733 0.370436 0.906659L0.451596 0.899445Z" fill="#828282"/>
</svg>
