<svg width="17" height="11" viewBox="0 0 17 11" fill="none" xmlns="http://www.w3.org/2000/svg">
<path d="M5.98525 9.53479H11.6537C11.7954 9.53453 11.932 9.58731 12.0367 9.68274C12.1414 9.77818 12.2065 9.90935 12.2193 10.0504C12.2321 10.1915 12.1916 10.3322 12.1058 10.445C12.02 10.5577 11.8951 10.6342 11.7558 10.6594L11.6537 10.6685H5.98525C5.8436 10.6687 5.70698 10.616 5.6023 10.5205C5.49763 10.4251 5.43247 10.2939 5.41968 10.1529C5.40688 10.0118 5.44736 9.87103 5.53315 9.75832C5.61895 9.6456 5.74383 9.56909 5.88322 9.54386L5.98525 9.53479ZM3.71785 5H13.9211C14.0628 4.99974 14.1994 5.05252 14.3041 5.14796C14.4087 5.24339 14.4739 5.37456 14.4867 5.51563C14.4995 5.6567 14.459 5.79745 14.3732 5.91017C14.2874 6.02288 14.1625 6.09939 14.0232 6.12463L13.9211 6.1337H3.71785C3.5762 6.13396 3.43959 6.08117 3.33491 5.98574C3.23023 5.89031 3.16508 5.75914 3.15228 5.61807C3.13948 5.477 3.17997 5.33625 3.26576 5.22353C3.35155 5.11082 3.47644 5.03431 3.61582 5.00907L3.71785 5ZM1.45046 0.465215H16.1885C16.3302 0.464954 16.4668 0.517738 16.5715 0.613172C16.6761 0.708606 16.7413 0.839773 16.7541 0.980844C16.7669 1.12192 16.7264 1.26267 16.6406 1.37538C16.5548 1.4881 16.4299 1.56461 16.2906 1.58984L16.1885 1.59891H1.45046C1.30881 1.59917 1.1722 1.54639 1.06752 1.45095C0.96284 1.35552 0.897687 1.22435 0.884888 1.08328C0.872089 0.94221 0.912572 0.801458 0.998366 0.688744C1.08416 0.576029 1.20904 0.499521 1.34843 0.474284L1.45046 0.465215Z" fill="white"/>
</svg>
