<svg width="17" height="15" viewBox="0 0 17 15" fill="none" xmlns="http://www.w3.org/2000/svg">
<path fill-rule="evenodd" clip-rule="evenodd" d="M8.83054 1.29341L9.96432 3.35716H15.4643C15.8337 3.35716 16.1879 3.5039 16.4491 3.76511C16.7104 4.02633 16.8571 4.3806 16.8571 4.75001V13.1072C16.8571 13.4766 16.7104 13.8308 16.4491 14.0921C16.1879 14.3533 15.8337 14.5 15.4643 14.5H1.53568C1.16627 14.5 0.811992 14.3533 0.550781 14.0921C0.289569 13.8308 0.142822 13.4766 0.142822 13.1072V1.9643C0.142822 1.59489 0.289569 1.24061 0.550781 0.9794C0.811992 0.718188 1.16627 0.571442 1.53568 0.571442H7.60993C7.85939 0.571447 8.10428 0.63845 8.31899 0.765451C8.53371 0.892451 8.71038 1.07479 8.83054 1.29341ZM1.07139 1.9643C1.07139 1.84116 1.12031 1.72307 1.20738 1.636C1.29445 1.54893 1.41254 1.50001 1.53568 1.50001H7.60993C7.69304 1.50003 7.77463 1.52235 7.84617 1.56466C7.91771 1.60696 7.97658 1.66769 8.01664 1.74051L8.90482 3.35716H1.07139V1.9643Z" fill="white"/>
</svg>
