<svg width="38" height="38" viewBox="0 0 38 38" fill="none" xmlns="http://www.w3.org/2000/svg">
<path d="M0 11.1428C0 4.98882 4.98883 0 11.1429 0H26.0754C32.2294 0 37.2182 4.98883 37.2182 11.1429V26.0754C37.2182 32.2294 32.2294 37.2182 26.0753 37.2182H11.1428C4.98882 37.2182 0 32.2294 0 26.0753V11.1428Z" fill="white"/>
<path d="M11.1426 0.5H26.0752C31.953 0.5 36.7176 5.26482 36.7178 11.1426V26.0752C36.7178 31.9531 31.9531 36.7178 26.0752 36.7178H11.1426C5.26482 36.7176 0.5 31.953 0.5 26.0752V11.1426L0.513672 10.5947C0.798933 4.97166 5.44865 0.500146 11.1426 0.5Z" stroke="black" stroke-opacity="0.06"/>
<path fill-rule="evenodd" clip-rule="evenodd" d="M19.3164 11.6738L20.4018 13.6H25.6667C26.0203 13.6 26.3594 13.737 26.6095 13.9808C26.8595 14.2246 27 14.5552 27 14.9V22.7C27 23.0448 26.8595 23.3754 26.6095 23.6192C26.3594 23.863 26.0203 24 25.6667 24H12.3333C11.9797 24 11.6406 23.863 11.3905 23.6192C11.1405 23.3754 11 23.0448 11 22.7V12.3C11 11.9552 11.1405 11.6246 11.3905 11.3808C11.6406 11.137 11.9797 11 12.3333 11H18.148C18.3868 11 18.6212 11.0625 18.8268 11.1811C19.0323 11.2996 19.2014 11.4698 19.3164 11.6738ZM11.8889 12.3C11.8889 12.1851 11.9357 12.0749 12.0191 11.9936C12.1024 11.9123 12.2155 11.8667 12.3333 11.8667H18.148C18.2276 11.8667 18.3057 11.8875 18.3741 11.927C18.4426 11.9665 18.499 12.0232 18.5373 12.0911L19.3876 13.6H11.8889V12.3Z" fill="#0077F0"/>
</svg>
