<svg width="20" height="14" viewBox="0 0 20 14" fill="none" xmlns="http://www.w3.org/2000/svg">
<path d="M3.39129e-08 4.47908C3.39129e-08 3.33231 0.455551 2.23252 1.26644 1.42163C2.07732 0.610744 3.17712 0.155193 4.32389 0.155193H10.8097C11.9565 0.155193 13.0563 0.610744 13.8672 1.42163C14.6781 2.23252 15.1336 3.33231 15.1336 4.47908C15.1336 5.62584 14.6781 6.72564 13.8672 7.53653C13.0563 8.34741 11.9565 8.80297 10.8097 8.80297H9.18826C9.04491 8.80297 8.90744 8.74602 8.80608 8.64466C8.70472 8.5433 8.64777 8.40583 8.64777 8.26248C8.64777 8.11913 8.70472 7.98166 8.80608 7.8803C8.90744 7.77894 9.04491 7.72199 9.18826 7.72199H10.8097C11.6698 7.72199 12.4946 7.38033 13.1028 6.77217C13.711 6.164 14.0526 5.33915 14.0526 4.47908C14.0526 3.619 13.711 2.79416 13.1028 2.18599C12.4946 1.57783 11.6698 1.23616 10.8097 1.23616H4.32389C3.54604 1.23571 2.79395 1.51486 2.20476 2.0227C1.61558 2.53055 1.22856 3.23324 1.11428 4.00265C1 4.77205 1.16609 5.5569 1.58224 6.21406C1.99839 6.87122 2.63688 7.35691 3.38128 7.58255C3.29937 7.93842 3.25373 8.30168 3.24508 8.66676C2.31634 8.42748 1.49352 7.88621 0.906072 7.12812C0.31862 6.37003 -0.00012004 5.43814 3.39129e-08 4.47908ZM18.3765 8.80297C18.3766 8.10737 18.1531 7.43017 17.7389 6.87134C17.3247 6.31252 16.7418 5.90168 16.0762 5.6995C16.1576 5.34854 16.2034 4.98714 16.2135 4.61528C17.23 4.88088 18.1152 5.50736 18.7037 6.37777C19.2922 7.24817 19.5438 8.303 19.4116 9.34532C19.2793 10.3876 18.7723 11.3462 17.985 12.0421C17.1978 12.7379 16.1843 13.1235 15.1336 13.1269H8.64777C7.50101 13.1269 6.40121 12.6713 5.59032 11.8604C4.77944 11.0495 4.32389 9.94973 4.32389 8.80297C4.32389 7.6562 4.77944 6.5564 5.59032 5.74552C6.40121 4.93463 7.50101 4.47908 8.64777 4.47908H10.2692C10.4126 4.47908 10.55 4.53602 10.6514 4.63738C10.7528 4.73874 10.8097 4.87622 10.8097 5.01957C10.8097 5.16291 10.7528 5.30039 10.6514 5.40175C10.55 5.50311 10.4126 5.56005 10.2692 5.56005H8.64777C7.7877 5.56005 6.96285 5.90171 6.35469 6.50988C5.74652 7.11804 5.40486 7.94289 5.40486 8.80297C5.40486 9.66304 5.74652 10.4879 6.35469 11.0961C6.96285 11.7042 7.7877 12.0459 8.64777 12.0459H15.1336C15.9937 12.0459 16.8185 11.7042 17.4267 11.0961C18.0349 10.4879 18.3765 9.66304 18.3765 8.80297Z" fill="#808080"/>
</svg>
