<svg width="38" height="38" viewBox="0 0 38 38" fill="none" xmlns="http://www.w3.org/2000/svg">
<rect x="2" y="1.99998" width="34.7111" height="34.7111" rx="17.3555" fill="#323232" fill-opacity="0.16"/>
<rect x="1.46573" y="1.46571" width="35.7796" height="35.7796" rx="17.8898" stroke="black" stroke-opacity="0.02" stroke-width="1.06853"/>
<path d="M23.3709 12.0914C24.0265 12.0914 24.6553 12.3519 25.1189 12.8154C25.5824 13.279 25.8429 13.9078 25.8429 14.5634V23.4623C25.8429 24.1179 25.5824 24.7467 25.1189 25.2103C24.6553 25.6739 24.0265 25.9343 23.3709 25.9343H14.4719C13.8163 25.9343 13.1876 25.6739 12.724 25.2103C12.2604 24.7467 12 24.1179 12 23.4623V14.5634C12 13.9078 12.2604 13.279 12.724 12.8154C13.1876 12.3519 13.8163 12.0914 14.4719 12.0914H23.3709ZM24.8541 16.0465H12.9888V23.4623C12.9888 23.8557 13.145 24.233 13.4232 24.5111C13.7013 24.7893 14.0786 24.9455 14.4719 24.9455H23.3709C23.7643 24.9455 24.1415 24.7893 24.4197 24.5111C24.6978 24.233 24.8541 23.8557 24.8541 23.4623V16.0465ZM23.3709 13.0802H14.4719C14.0786 13.0802 13.7013 13.2365 13.4232 13.5146C13.145 13.7928 12.9888 14.17 12.9888 14.5634V15.0578H24.8541V14.5634C24.8541 14.17 24.6978 13.7928 24.4197 13.5146C24.1415 13.2365 23.7643 13.0802 23.3709 13.0802Z" fill="white"/>
</svg>
