<svg width="15" height="17" viewBox="0 0 15 17" fill="none" xmlns="http://www.w3.org/2000/svg">
<path d="M7.18632 0.674168C8.3063 0.674168 9.35743 0.961869 10.2637 1.46535C10.0029 1.69953 9.78402 1.97648 9.61637 2.28427C8.86465 1.89939 8.03186 1.69964 7.18735 1.70167C4.49221 1.70167 2.28616 3.67859 2.07038 6.20727L2.056 6.42511L2.05086 6.63574V10.4355L2.01181 10.6327L1.02233 13.0093L13.3092 13.0114L13.3555 13.0093L12.366 10.6327L12.3259 10.4355V6.83919C12.6865 6.83919 13.0328 6.77754 13.3534 6.66451V10.3306L14.3038 12.6138C14.3264 12.6692 14.3446 12.7264 14.3583 12.7854L14.3737 12.8737L14.383 13.0093C14.3818 13.2362 14.3055 13.4563 14.1661 13.6353C14.0267 13.8143 13.832 13.9421 13.6123 13.9988L13.4931 14.0266L13.3555 14.0369L9.75713 14.0358L9.752 14.2013C9.71071 14.8531 9.42265 15.4648 8.94641 15.9118C8.47018 16.3588 7.84154 16.6076 7.18838 16.6076C6.53521 16.6076 5.90657 16.3588 5.43034 15.9118C4.9541 15.4648 4.66604 14.8531 4.62475 14.2013L4.61962 14.0358H1.02336C0.933157 14.036 0.843335 14.0242 0.756204 14.0009L0.627766 13.9577C0.420351 13.8703 0.247386 13.7172 0.13545 13.5219C0.0235143 13.3266 -0.0211989 13.1 0.00818173 12.8768L0.0307866 12.7453L0.0739418 12.6138L1.02233 10.3337L1.02336 6.6265L1.02849 6.39531C1.15385 3.19258 3.86954 0.674168 7.18632 0.674168ZM8.72963 14.0358H5.64712L5.65431 14.1807C5.68889 14.5365 5.84605 14.8692 6.09891 15.1219C6.35177 15.3745 6.6846 15.5315 7.04041 15.5658L7.18838 15.573C7.57135 15.573 7.94061 15.4304 8.22421 15.173C8.5078 14.9156 8.68542 14.5619 8.72244 14.1807L8.72963 14.0358ZM10.4836 2.84631C10.6377 2.53292 10.8699 2.26577 11.1545 2.06849C11.5655 1.78342 12.0664 1.65804 12.5632 1.71585C13.0601 1.77366 13.5188 2.01069 13.8533 2.3825C14.1879 2.75432 14.3754 3.2354 14.3806 3.73556C14.3859 4.23572 14.2085 4.72062 13.8818 5.09937C13.5551 5.47811 13.1015 5.7247 12.6059 5.7929C12.1104 5.8611 11.607 5.74624 11.1902 5.46984C10.7733 5.19344 10.4715 4.77448 10.3414 4.29151C10.2114 3.80853 10.2619 3.29469 10.4836 2.84631Z" fill="#808080"/>
</svg>
