<svg width="12" height="12" viewBox="0 0 12 12" fill="none" xmlns="http://www.w3.org/2000/svg">
<path d="M6.44988 5.60722V0.787389C6.44988 0.683699 6.40869 0.584255 6.33537 0.510935C6.26205 0.437614 6.16261 0.396423 6.05892 0.396423C5.95522 0.396423 5.85578 0.437614 5.78246 0.510935C5.70914 0.584255 5.66795 0.683699 5.66795 0.787389V5.60722H0.848119C0.744429 5.60722 0.644985 5.64841 0.571665 5.72173C0.498344 5.79505 0.457153 5.89449 0.457153 5.99818C0.457153 6.10188 0.498344 6.20132 0.571665 6.27464C0.644985 6.34796 0.744429 6.38915 0.848119 6.38915H5.66795V11.2126C5.66795 11.3163 5.70914 11.4158 5.78246 11.4891C5.85578 11.5624 5.95522 11.6036 6.05892 11.6036C6.16261 11.6036 6.26205 11.5624 6.33537 11.4891C6.40869 11.4158 6.44988 11.3163 6.44988 11.2126V6.38915L11.2718 6.39071C11.3755 6.39071 11.4749 6.34952 11.5483 6.2762C11.6216 6.20288 11.6628 6.10344 11.6628 5.99975C11.6628 5.89606 11.6216 5.79661 11.5483 5.72329C11.4749 5.64997 11.3755 5.60878 11.2718 5.60878L6.44988 5.60722Z" fill="#007AFF"/>
</svg>
