<svg width="17" height="18" viewBox="0 0 17 18" fill="none" xmlns="http://www.w3.org/2000/svg">
<path d="M10.6304 5.52903C10.3715 5.19488 10.0193 4.94513 9.61829 4.81145L8.58288 4.47483C8.50339 4.44654 8.4346 4.39433 8.38596 4.32539C8.33731 4.25644 8.3112 4.17413 8.3112 4.08975C8.3112 4.00537 8.33731 3.92306 8.38596 3.85411C8.4346 3.78516 8.50339 3.73296 8.58288 3.70466L9.11636 3.53109L9.11411 3.53034L9.61754 3.36654C9.92446 3.26198 10.2033 3.08839 10.4326 2.85911C10.6618 2.62984 10.8354 2.35102 10.94 2.0441L10.9482 2.01855L11.2849 0.983893C11.3128 0.903881 11.365 0.834547 11.4341 0.785491C11.5033 0.736435 11.5859 0.710083 11.6707 0.710083C11.7555 0.710083 11.8381 0.736435 11.9073 0.785491C11.9764 0.834547 12.0286 0.903881 12.0565 0.983893L12.3924 2.01855C12.4974 2.33304 12.6742 2.61873 12.9089 2.85298C13.1435 3.08722 13.4295 3.26357 13.7442 3.36804L14.7788 3.70466L14.7998 3.70992C14.8793 3.73822 14.9481 3.79042 14.9968 3.85937C15.0454 3.92832 15.0715 4.01063 15.0715 4.09501C15.0715 4.17939 15.0454 4.2617 14.9968 4.33064C14.9481 4.39959 14.8793 4.4518 14.7998 4.48009L13.7644 4.81671C13.6339 4.86067 13.5076 4.91651 13.3872 4.98352L13.3902 4.98728C13.0552 5.17619 12.7774 5.45216 12.5863 5.786L12.584 5.78375C12.5154 5.9059 12.4583 6.03419 12.4134 6.16695L12.0768 7.20086L12.0671 7.22641C12.0346 7.30202 11.9801 7.36607 11.9106 7.41018C11.8411 7.45429 11.76 7.47642 11.6778 7.47366C11.5955 7.4709 11.516 7.44338 11.4497 7.39471C11.3833 7.34604 11.3332 7.27848 11.3059 7.20086L10.9693 6.1662C10.8941 5.93593 10.7797 5.72037 10.6312 5.52903M16.4131 8.38505L15.8375 8.1987C15.6629 8.14031 15.5042 8.0421 15.374 7.91182C15.2439 7.78154 15.1458 7.62277 15.0876 7.44807L14.8998 6.87401C14.8842 6.82962 14.8553 6.79117 14.8169 6.76397C14.7785 6.73676 14.7327 6.72215 14.6856 6.72215C14.6386 6.72215 14.5927 6.73676 14.5544 6.76397C14.516 6.79117 14.487 6.82962 14.4715 6.87401L14.2851 7.44807C14.1929 7.7281 13.9998 7.96379 13.7434 8.10929H13.7404V8.11079C13.6788 8.14585 13.6139 8.17516 13.5458 8.1987L12.971 8.38505C12.9266 8.4006 12.8881 8.42956 12.8609 8.46793C12.8337 8.50629 12.8191 8.55216 12.8191 8.59919C12.8191 8.64622 12.8337 8.69209 12.8609 8.73045C12.8881 8.76882 12.9266 8.79778 12.971 8.81334L13.5458 9.00043C13.7204 9.05882 13.8791 9.15703 14.0092 9.28731C14.1394 9.41759 14.2375 9.57636 14.2957 9.75107L14.4828 10.3259C14.498 10.3711 14.5272 10.4103 14.5662 10.4378C14.5949 10.4582 14.6279 10.4716 14.6627 10.477C14.6975 10.4824 14.733 10.4796 14.7666 10.4689C14.8001 10.4582 14.8307 10.4398 14.8559 10.4153C14.8811 10.3907 14.9002 10.3606 14.9118 10.3274L15.0989 9.75332C15.1572 9.57853 15.2554 9.41971 15.3856 9.28943C15.5159 9.15915 15.6747 9.06097 15.8495 9.00268L16.4243 8.81634C16.4687 8.80078 16.5072 8.77182 16.5344 8.73346C16.5616 8.69509 16.5762 8.64923 16.5762 8.6022C16.5762 8.55516 16.5616 8.5093 16.5344 8.47093C16.5072 8.43257 16.4687 8.40361 16.4243 8.38805L16.4131 8.38505ZM14.1319 11.0517C14.0239 10.9752 13.9327 10.8775 13.8636 10.7647C13.6637 11.9787 13.1173 13.1092 12.2903 14.0202C11.4632 14.9312 10.3906 15.5839 9.2015 15.8999C8.01236 16.2159 6.75726 16.1817 5.58708 15.8015C4.41689 15.4213 3.38143 14.7112 2.60516 13.7565C1.82889 12.8019 1.34486 11.6434 1.21124 10.4203C1.07763 9.19712 1.30012 7.96143 1.85198 6.86172C2.40384 5.76201 3.26156 4.84509 4.32206 4.22118C5.38255 3.59727 6.60067 3.29293 7.82999 3.34475C7.96789 3.18082 8.14832 3.05811 8.35145 2.99009L9.37334 2.65798C9.47853 2.62141 9.57797 2.57332 9.67164 2.51371C8.98547 2.31358 8.27425 2.21238 7.55949 2.21316C3.40884 2.21241 0.0441284 5.57712 0.0441284 9.72702C0.0441284 13.8777 3.40884 17.2424 7.55949 17.2424C11.2037 17.2424 14.2431 14.6478 14.9291 11.2042C14.793 11.2375 14.6514 11.241 14.5139 11.2147C14.3763 11.1884 14.246 11.1328 14.1319 11.0517ZM7.55874 13.1105C7.04647 13.1111 6.54079 12.9951 6.08005 12.7711C5.61931 12.5472 5.21562 12.2213 4.89959 11.8181C4.80692 11.7008 4.67142 11.625 4.5229 11.6075C4.37438 11.59 4.225 11.6323 4.10762 11.725C3.99025 11.8176 3.91449 11.9531 3.89702 12.1016C3.87954 12.2502 3.92179 12.3995 4.01445 12.5169C4.43615 13.0536 4.97438 13.4873 5.58842 13.7853C6.20246 14.0832 6.87622 14.2377 7.55874 14.2368C8.95632 14.2368 10.2487 13.5952 11.0993 12.5199C11.1452 12.4618 11.1791 12.3952 11.1993 12.324C11.2194 12.2527 11.2254 12.1782 11.2167 12.1046C11.2081 12.0311 11.185 11.96 11.1489 11.8954C11.1127 11.8307 11.0642 11.7738 11.0061 11.728C10.948 11.6821 10.8814 11.6481 10.8101 11.6279C10.7389 11.6078 10.6644 11.6019 10.5908 11.6105C10.5173 11.6192 10.4462 11.6422 10.3815 11.6784C10.3169 11.7145 10.26 11.763 10.2141 11.8211C9.89812 12.2231 9.49486 12.548 9.03484 12.7712C8.57482 12.9945 8.07007 13.1102 7.55874 13.1098M6.24381 8.225C6.24381 7.9759 6.14486 7.737 5.96872 7.56086C5.79258 7.38472 5.55368 7.28577 5.30458 7.28577C5.05548 7.28577 4.81658 7.38472 4.64044 7.56086C4.4643 7.737 4.36535 7.9759 4.36535 8.225C4.36535 8.4741 4.4643 8.713 4.64044 8.88914C4.81658 9.06528 5.05548 9.16423 5.30458 9.16423C5.55368 9.16423 5.79258 9.06528 5.96872 8.88914C6.14486 8.713 6.24381 8.4741 6.24381 8.225ZM10.7521 8.225C10.7521 7.9759 10.6532 7.737 10.477 7.56086C10.3009 7.38472 10.062 7.28577 9.8129 7.28577C9.5638 7.28577 9.3249 7.38472 9.14876 7.56086C8.97262 7.737 8.87367 7.9759 8.87367 8.225C8.87367 8.4741 8.97262 8.713 9.14876 8.88914C9.3249 9.06528 9.5638 9.16423 9.8129 9.16423C10.062 9.16423 10.3009 9.06528 10.477 8.88914C10.6532 8.713 10.7521 8.4741 10.7521 8.225Z" fill="#6F6F6F"/>
</svg>
