<svg width="16" height="16" viewBox="0 0 16 16" fill="none" xmlns="http://www.w3.org/2000/svg">
<path d="M6.09793 0.0740128C7.22791 0.0738201 8.33454 0.395649 9.28818 1.0018C10.2418 1.60794 11.003 2.47331 11.4825 3.4965C11.962 4.5197 12.1399 5.65835 11.9956 6.77906C11.8512 7.89977 11.3904 8.95613 10.6672 9.82438L15.1284 14.2845C15.2241 14.3798 15.2807 14.5075 15.287 14.6425C15.2932 14.7775 15.2487 14.9099 15.1621 15.0137C15.0756 15.1174 14.9533 15.185 14.8194 15.2031C14.6855 15.2212 14.5497 15.1885 14.4387 15.1114L14.363 15.0498L9.90295 10.5886C9.16919 11.1995 8.2991 11.6246 7.36629 11.8281C6.43348 12.0316 5.46539 12.0074 4.54389 11.7577C3.62239 11.5079 2.77459 11.0399 2.0722 10.3932C1.36981 9.74655 0.833495 8.94023 0.50861 8.04246C0.183726 7.14469 0.0798313 6.18188 0.205714 5.23547C0.331596 4.28906 0.683553 3.38688 1.23182 2.60525C1.78008 1.82362 2.50852 1.18552 3.35552 0.744926C4.20253 0.304334 5.14319 0.0742084 6.09793 0.0740128ZM6.09793 1.15498C4.80782 1.15498 3.57055 1.66748 2.6583 2.57973C1.74606 3.49197 1.23356 4.72924 1.23356 6.01936C1.23356 7.30947 1.74606 8.54674 2.6583 9.45899C3.57055 10.3712 4.80782 10.8837 6.09793 10.8837C7.38805 10.8837 8.62532 10.3712 9.53756 9.45899C10.4498 8.54674 10.9623 7.30947 10.9623 6.01936C10.9623 4.72924 10.4498 3.49197 9.53756 2.57973C8.62532 1.66748 7.38805 1.15498 6.09793 1.15498Z" fill="#808080"/>
</svg>
