<svg width="38" height="38" viewBox="0 0 38 38" fill="none" xmlns="http://www.w3.org/2000/svg">
<rect x="1.71106" y="1.99998" width="34.7111" height="34.7111" rx="17.3555" fill="#323232" fill-opacity="0.16"/>
<rect x="1.17679" y="1.46571" width="35.7796" height="35.7796" rx="17.8898" stroke="black" stroke-opacity="0.02" stroke-width="1.06853"/>
<path d="M18.2018 12.9703C21.1475 12.9703 23.5354 15.3582 23.5354 18.3039C23.5354 19.578 23.0887 20.7477 22.3433 21.665L25.9486 25.2704C26.1641 25.4859 26.1641 25.8353 25.9486 26.0507C25.7528 26.2466 25.4462 26.2644 25.2302 26.1042L25.1684 26.0507L21.5629 22.4454C20.6456 23.1908 19.4759 23.6375 18.2018 23.6375C15.2562 23.6375 12.8682 21.2496 12.8682 18.3039C12.8682 15.3582 15.2562 12.9703 18.2018 12.9703ZM18.2018 14.0738C15.8656 14.0738 13.9717 15.9677 13.9717 18.3039C13.9717 20.6401 15.8656 22.534 18.2018 22.534C20.538 22.534 22.4319 20.6401 22.4319 18.3039C22.4319 15.9677 20.538 14.0738 18.2018 14.0738Z" fill="white"/>
</svg>
