<svg width="18" height="17" viewBox="0 0 18 17" fill="none" xmlns="http://www.w3.org/2000/svg">
<path d="M7.67381 0.966591C7.76302 0.785565 7.90112 0.633127 8.07249 0.526532C8.24385 0.419937 8.44163 0.363441 8.64345 0.363441C8.84526 0.363441 9.04304 0.419937 9.2144 0.526532C9.38577 0.633127 9.52387 0.785565 9.61308 0.966591L11.6994 5.19319L16.3659 5.87204C16.5656 5.90103 16.7531 5.98532 16.9074 6.11537C17.0616 6.24542 17.1764 6.41604 17.2387 6.60792C17.301 6.79981 17.3084 7.0053 17.26 7.20116C17.2115 7.39701 17.1093 7.57541 16.9648 7.71618L13.5878 11.0067L14.3856 15.6548C14.4196 15.8536 14.3974 16.058 14.3214 16.2448C14.2454 16.4316 14.1186 16.5934 13.9554 16.712C13.7922 16.8305 13.5991 16.901 13.398 16.9156C13.1968 16.9301 12.9956 16.888 12.8171 16.7942L8.64452 14.5998L4.46981 16.7942C4.29124 16.8878 4.09003 16.9297 3.88892 16.915C3.68782 16.9003 3.49483 16.8296 3.33178 16.711C3.16873 16.5923 3.04211 16.4305 2.96623 16.2436C2.89036 16.0568 2.86825 15.8525 2.90241 15.6538L3.69908 11.0067L0.322128 7.71618C0.177599 7.57541 0.0753465 7.39701 0.0269389 7.20116C-0.0214687 7.0053 -0.0140997 6.79981 0.0482124 6.60792C0.110525 6.41604 0.225293 6.24542 0.379533 6.11537C0.533774 5.98532 0.721331 5.90103 0.920986 5.87204L5.58754 5.19427L7.67381 0.966591ZM8.64345 1.44438L6.55717 5.67206C6.47959 5.82922 6.36497 5.96516 6.22317 6.06817C6.08137 6.17118 5.91665 6.23816 5.7432 6.26335L1.07557 6.9422L4.45252 10.2327C4.57788 10.3551 4.67163 10.5061 4.72567 10.6727C4.77971 10.8394 4.79244 11.0167 4.76276 11.1893L3.96608 15.8375L8.13863 13.6431C8.2938 13.5615 8.4665 13.5189 8.64182 13.5189C8.81715 13.5189 8.98984 13.5615 9.14501 13.6431L13.3186 15.8375L12.522 11.1893C12.4923 11.0167 12.505 10.8394 12.5591 10.6727C12.6131 10.5061 12.7068 10.3551 12.8322 10.2327L16.2092 6.9422L11.5426 6.26335C11.3694 6.238 11.2049 6.17094 11.0633 6.06794C10.9217 5.96494 10.8072 5.82909 10.7297 5.67206L8.64345 1.44438Z" fill="#808080"/>
</svg>
