<svg width="13" height="9" viewBox="0 0 13 9" fill="none" xmlns="http://www.w3.org/2000/svg">
<path d="M0.62793 7.66489H6.90332C7.03656 7.66489 7.16809 7.72588 7.26758 7.84067C7.36748 7.95594 7.42578 8.11543 7.42578 8.28403C7.42571 8.45242 7.36732 8.61122 7.26758 8.72641C7.16809 8.84121 7.03657 8.90219 6.90332 8.90219H0.62793C0.494679 8.90219 0.363163 8.84121 0.263672 8.72641C0.163874 8.61121 0.105538 8.45247 0.105469 8.28403C0.105469 8.11543 0.163769 7.95594 0.263672 7.84067C0.36315 7.72595 0.494728 7.66489 0.62793 7.66489ZM0.62793 4.04379H11.9238C12.0569 4.04379 12.1886 4.105 12.2881 4.21957C12.388 4.33482 12.4463 4.49437 12.4463 4.66293C12.4463 4.83153 12.388 4.99102 12.2881 5.10629C12.1886 5.22094 12.057 5.28207 11.9238 5.28207H0.62793C0.494773 5.28207 0.363138 5.22093 0.263672 5.10629C0.163769 4.99102 0.105469 4.83153 0.105469 4.66293C0.105492 4.49437 0.163789 4.33482 0.263672 4.21957C0.363126 4.10501 0.494818 4.04379 0.62793 4.04379ZM0.62793 0.423676H11.9238C12.0571 0.423676 12.1886 0.484669 12.2881 0.599457C12.388 0.714729 12.4463 0.874216 12.4463 1.04282C12.4462 1.21124 12.3879 1.37003 12.2881 1.4852C12.1886 1.6 12.0571 1.66098 11.9238 1.66098H0.62793C0.494684 1.66098 0.363162 1.59999 0.263672 1.4852C0.163863 1.37003 0.105577 1.21124 0.105469 1.04282C0.105469 0.874216 0.163769 0.714729 0.263672 0.599457C0.36316 0.484679 0.494691 0.423676 0.62793 0.423676Z" fill="#A1A1A1" stroke="white" stroke-width="0.210658"/>
</svg>
