<svg width="20" height="21" viewBox="0 0 20 21" fill="none" xmlns="http://www.w3.org/2000/svg">
<path d="M9.21368 6.41457C9.34613 6.28212 9.42053 6.10249 9.42053 5.91518C9.42053 5.72787 9.34613 5.54823 9.21368 5.41579C9.08123 5.28334 8.90159 5.20893 8.71429 5.20893C8.52698 5.20893 8.34734 5.28334 8.21489 5.41579L6.22296 7.40771L5.66291 6.89704C5.52376 6.7781 5.34381 6.71791 5.1611 6.72921C4.97839 6.7405 4.80723 6.82238 4.68378 6.95755C4.56033 7.09272 4.49427 7.27059 4.49955 7.45358C4.50484 7.63656 4.58105 7.81032 4.71209 7.93814L5.77012 8.90448C5.90418 9.02654 6.08009 9.09228 6.26134 9.08808C6.44259 9.08388 6.61526 9.01005 6.74352 8.88191L9.21368 6.41457ZM9.21368 12.4694C9.27937 12.5349 9.33148 12.6127 9.36704 12.6984C9.4026 12.7841 9.4209 12.876 9.4209 12.9688C9.4209 13.0615 9.4026 13.1534 9.36704 13.2391C9.33148 13.3248 9.27937 13.4026 9.21368 13.4681L6.74493 15.9369C6.61642 16.0652 6.44336 16.1391 6.26177 16.143C6.08019 16.147 5.90408 16.0807 5.77012 15.9581L4.71209 14.9917C4.58105 14.8639 4.50484 14.6901 4.49955 14.5071C4.49427 14.3242 4.56033 14.1463 4.68378 14.0111C4.80723 13.876 4.97839 13.7941 5.1611 13.7828C5.34381 13.7715 5.52376 13.8317 5.66291 13.9506L6.22296 14.4627L8.21489 12.4694C8.28041 12.4037 8.35825 12.3516 8.44395 12.316C8.52964 12.2804 8.62151 12.2621 8.71429 12.2621C8.80706 12.2621 8.89893 12.2804 8.98462 12.316C9.07032 12.3516 9.14816 12.4037 9.21368 12.4694ZM11.5357 13.3214C11.3486 13.3214 11.1692 13.3957 11.037 13.528C10.9047 13.6603 10.8304 13.8397 10.8304 14.0268C10.8304 14.2139 10.9047 14.3933 11.037 14.5255C11.1692 14.6578 11.3486 14.7321 11.5357 14.7321H15.0625C15.2496 14.7321 15.429 14.6578 15.5613 14.5255C15.6935 14.3933 15.7679 14.2139 15.7679 14.0268C15.7679 13.8397 15.6935 13.6603 15.5613 13.528C15.429 13.3957 15.2496 13.3214 15.0625 13.3214H11.5357ZM10.8304 6.97321C10.8304 6.78614 10.9047 6.60673 11.037 6.47445C11.1692 6.34217 11.3486 6.26786 11.5357 6.26786H15.0625C15.2496 6.26786 15.429 6.34217 15.5613 6.47445C15.6935 6.60673 15.7679 6.78614 15.7679 6.97321C15.7679 7.16029 15.6935 7.3397 15.5613 7.47198C15.429 7.60426 15.2496 7.67857 15.0625 7.67857H11.5357C11.3486 7.67857 11.1692 7.60426 11.037 7.47198C10.9047 7.3397 10.8304 7.16029 10.8304 6.97321ZM4.48214 0.625C3.35971 0.625 2.28325 1.07089 1.48957 1.86457C0.695885 2.65825 0.25 3.73471 0.25 4.85714V16.1429C0.25 17.2653 0.695885 18.3418 1.48957 19.1354C2.28325 19.9291 3.35971 20.375 4.48214 20.375H15.7679C16.8903 20.375 17.9668 19.9291 18.7604 19.1354C19.5541 18.3418 20 17.2653 20 16.1429V4.85714C20 3.73471 19.5541 2.65825 18.7604 1.86457C17.9668 1.07089 16.8903 0.625 15.7679 0.625H4.48214ZM1.66071 4.85714C1.66071 4.10885 1.95797 3.39121 2.48709 2.86209C3.01621 2.33297 3.73385 2.03571 4.48214 2.03571H15.7679C16.5161 2.03571 17.2338 2.33297 17.7629 2.86209C18.292 3.39121 18.5893 4.10885 18.5893 4.85714V16.1429C18.5893 16.8911 18.292 17.6088 17.7629 18.1379C17.2338 18.667 16.5161 18.9643 15.7679 18.9643H4.48214C3.73385 18.9643 3.01621 18.667 2.48709 18.1379C1.95797 17.6088 1.66071 16.8911 1.66071 16.1429V4.85714Z" fill="#0077F0"/>
</svg>
