<svg width="34" height="34" viewBox="0 0 34 34" fill="none" xmlns="http://www.w3.org/2000/svg">
<rect width="34" height="34" rx="17" fill="#FCFCFC"/>
<rect x="0.447761" y="0.447761" width="33.1045" height="33.1045" rx="16.5522" stroke="#E2E2E2" stroke-opacity="0.3" stroke-width="0.895522"/>
<path d="M10.6809 14.4706L12.7885 12.363V21.7609C12.7885 21.8666 12.8305 21.968 12.9052 22.0427C12.98 22.1175 13.0813 22.1594 13.187 22.1594C13.2927 22.1594 13.3941 22.1175 13.4689 22.0427C13.5436 21.968 13.5856 21.8666 13.5856 21.7609V12.3591L15.6971 14.4714C15.772 14.5461 15.8734 14.5881 15.9792 14.588C16.0849 14.5879 16.1863 14.5458 16.2611 14.471C16.3358 14.3961 16.3777 14.2947 16.3777 14.1889C16.3776 14.0832 16.3355 13.9818 16.2607 13.907L13.4788 11.1251L13.4708 11.1172C13.4338 11.08 13.3898 11.0506 13.3414 11.0305C13.293 11.0104 13.2411 11 13.1886 11H13.187C13.1288 11 13.0713 11.0128 13.0186 11.0375C12.9658 11.0621 12.9191 11.098 12.8818 11.1427L10.1166 13.907C10.0796 13.9441 10.0503 13.9881 10.0302 14.0365C10.0102 14.0849 9.99996 14.1367 10 14.1891C10 14.2415 10.0104 14.2933 10.0305 14.3417C10.0505 14.39 10.0799 14.434 10.117 14.471C10.1541 14.508 10.198 14.5373 10.2464 14.5573C10.2948 14.5773 10.3467 14.5876 10.3991 14.5876C10.4514 14.5875 10.5033 14.5772 10.5516 14.5571C10.6 14.537 10.6439 14.5076 10.6809 14.4706ZM22.871 18.6889L20.7635 20.7964V11.3986C20.7635 11.2928 20.7215 11.1915 20.6468 11.1167C20.572 11.042 20.4707 11 20.365 11C20.2593 11 20.1579 11.042 20.0831 11.1167C20.0084 11.1915 19.9664 11.2928 19.9664 11.3986V20.8004L17.8541 18.6881C17.817 18.6511 17.773 18.6217 17.7246 18.6017C17.6763 18.5817 17.6244 18.5714 17.572 18.5715C17.4663 18.5715 17.3649 18.6136 17.2901 18.6885C17.2154 18.7633 17.1735 18.8648 17.1735 18.9705C17.1736 19.0763 17.2157 19.1777 17.2905 19.2524L20.0724 22.0343L20.0804 22.0423C20.1175 22.0795 20.1616 22.109 20.2102 22.1291C20.2587 22.1492 20.3108 22.1595 20.3634 22.1594H20.365C20.4232 22.1594 20.4807 22.1466 20.5334 22.122C20.5862 22.0973 20.6329 22.0614 20.6702 22.0168L23.4346 19.2524C23.4727 19.2156 23.503 19.1717 23.5239 19.123C23.5448 19.0744 23.5558 19.0221 23.5563 18.9692C23.5567 18.9163 23.5466 18.8638 23.5266 18.8148C23.5066 18.7658 23.477 18.7213 23.4395 18.6839C23.4021 18.6465 23.3576 18.6169 23.3086 18.5969C23.2597 18.5768 23.2072 18.5667 23.1543 18.5672C23.1013 18.5677 23.049 18.5787 23.0004 18.5995C22.9518 18.6204 22.9078 18.6508 22.871 18.6889Z" fill="#828282"/>
</svg>
