<svg width="17" height="18" viewBox="0 0 17 18" fill="none" xmlns="http://www.w3.org/2000/svg">
<path d="M6.8279 0.880005C5.79311 0.880005 4.80071 1.29107 4.06901 2.02277C3.33731 2.75448 2.92624 3.74688 2.92624 4.78166C2.92624 5.81644 3.33731 6.80884 4.06901 7.54055C4.80071 8.27225 5.79311 8.68331 6.8279 8.68331C7.86268 8.68331 8.85508 8.27225 9.58678 7.54055C10.3185 6.80884 10.7295 5.81644 10.7295 4.78166C10.7295 3.74688 10.3185 2.75448 9.58678 2.02277C8.85508 1.29107 7.86268 0.880005 6.8279 0.880005ZM3.90165 4.78166C3.90165 4.00557 4.20995 3.26127 4.75873 2.71249C5.30751 2.16372 6.05181 1.85542 6.8279 1.85542C7.60398 1.85542 8.34828 2.16372 8.89706 2.71249C9.44584 3.26127 9.75414 4.00557 9.75414 4.78166C9.75414 5.55775 9.44584 6.30205 8.89706 6.85082C8.34828 7.3996 7.60398 7.7079 6.8279 7.7079C6.05181 7.7079 5.30751 7.3996 4.75873 6.85082C4.20995 6.30205 3.90165 5.55775 3.90165 4.78166ZM1.95961 9.65873C1.70268 9.65757 1.44806 9.70718 1.21036 9.8047C0.972661 9.90222 0.756566 10.0457 0.574484 10.227C0.392402 10.4083 0.24792 10.6237 0.149333 10.861C0.0507465 11.0982 -2.6013e-06 11.3526 1.00005e-10 11.6096C1.00005e-10 13.259 0.81252 14.5026 2.08251 15.3132C3.33299 16.1101 5.0185 16.4866 6.8279 16.4866C7.22912 16.4866 7.62253 16.4681 8.00815 16.431C7.77538 16.1413 7.57336 15.8281 7.40534 15.4966C7.21611 15.5063 7.02363 15.5112 6.8279 15.5112C5.13555 15.5112 3.65097 15.1562 2.60728 14.49C1.5831 13.8364 0.975414 12.8873 0.975414 11.6096C0.975414 11.0702 1.4124 10.6341 1.95961 10.6341H7.41217C7.59229 10.2843 7.80624 9.95916 8.05399 9.65873H1.95961ZM12.1927 17.462C13.3568 17.462 14.4733 16.9996 15.2964 16.1764C16.1196 15.3533 16.582 14.2368 16.582 13.0727C16.582 11.9085 16.1196 10.7921 15.2964 9.96893C14.4733 9.14576 13.3568 8.68331 12.1927 8.68331C11.0285 8.68331 9.91209 9.14576 9.08892 9.96893C8.26576 10.7921 7.80331 11.9085 7.80331 13.0727C7.80331 14.2368 8.26576 15.3533 9.08892 16.1764C9.91209 16.9996 11.0285 17.462 12.1927 17.462ZM12.1927 10.6341C12.322 10.6341 12.4461 10.6855 12.5375 10.777C12.629 10.8684 12.6804 10.9925 12.6804 11.1218V12.585H14.1435C14.2728 12.585 14.3969 12.6364 14.4884 12.7278C14.5798 12.8193 14.6312 12.9433 14.6312 13.0727C14.6312 13.202 14.5798 13.3261 14.4884 13.4175C14.3969 13.509 14.2728 13.5604 14.1435 13.5604H12.6804V15.0235C12.6804 15.1529 12.629 15.2769 12.5375 15.3684C12.4461 15.4598 12.322 15.5112 12.1927 15.5112C12.0633 15.5112 11.9393 15.4598 11.8478 15.3684C11.7563 15.2769 11.705 15.1529 11.705 15.0235V13.5604H10.2418C10.1125 13.5604 9.98844 13.509 9.89698 13.4175C9.80552 13.3261 9.75414 13.202 9.75414 13.0727C9.75414 12.9433 9.80552 12.8193 9.89698 12.7278C9.98844 12.6364 10.1125 12.585 10.2418 12.585H11.705V11.1218C11.705 10.9925 11.7563 10.8684 11.8478 10.777C11.9393 10.6855 12.0633 10.6341 12.1927 10.6341Z" fill="#7E7E7E"/>
</svg>
